<?xml version="1.0" encoding="UTF-8"?><svg id="a" xmlns="http://www.w3.org/2000/svg" viewBox="0 0 238.06 44.12"><path d="M26.1,7.54l-4.55,2.63c-.33,.19-.75,.04-.88-.32L17.6,1.44c-.13-.36-.55-.51-.88-.32l-2.52,1.45c-.26,.15-.37,.46-.27,.74l3.22,8.81c.1,.28-.01,.59-.27,.74l-5.8,3.35c-.33,.19-.75,.04-.88-.32L7.13,7.48c-.13-.36-.55-.51-.88-.32l-2.52,1.45c-.26,.15-.37,.46-.27,.74l3.22,8.81c.1,.28-.01,.59-.27,.74l-4.87,2.81c-.26,.15-.37,.47-.27,.75l.9,2.39c.13,.35,.55,.5,.88,.31l4.47-2.58c.33-.19,.75-.04,.88,.32l2.59,7.03c.1,.28-.01,.59-.27,.74l-4.92,2.84c-.26,.15-.37,.47-.27,.75l.92,2.43c.13,.35,.55,.5,.88,.31l4.52-2.61c.33-.19,.75-.04,.88,.32l2.92,7.96c.13,.36,.55,.51,.88,.32l2.52-1.45c.26-.15,.37-.46,.27-.74l-3.07-8.35c-.1-.28,.01-.59,.27-.74l5.8-3.35c.33-.19,.75-.04,.88,.32l2.92,7.96c.13,.36,.55,.51,.88,.32l2.52-1.45c.26-.15,.37-.46,.27-.74l-3.03-8.38c-.1-.28,.01-.59,.27-.74l4.84-2.79c.26-.15,.37-.46,.27-.74l-.89-2.45c-.13-.36-.55-.51-.88-.32l-4.51,2.6c-.33,.19-.75,.04-.88-.32l-2.55-7.05c-.1-.28,.01-.59,.27-.74l4.88-2.82c.26-.15,.37-.46,.27-.74l-.87-2.4c-.13-.36-.55-.51-.88-.32Zm-8.58,11.43c.28,.73,.14,1.58-.31,2.25-.08,.11-.07,.26,.01,.37l2.39,3.29c.12,.16,.07,.39-.11,.49l-2.89,1.64c-.21,.12-.47-.01-.5-.25l-.5-4.17c-.02-.17-.16-.29-.32-.29-.7-.01-1.33-.42-1.61-1.14-.42-1.08,.1-2.44,1.16-3.04,1.06-.6,2.26-.22,2.68,.86Z" style="fill:#6c52a2;"/><path d="M24.87,7.24l-4.55,2.63c-.33,.19-.75,.04-.88-.32L16.37,1.14c-.13-.36-.55-.51-.88-.32l-2.52,1.45c-.26,.15-.37,.46-.27,.74l3.22,8.81c.1,.28-.01,.59-.27,.74l-5.8,3.35c-.33,.19-.75,.04-.88-.32L5.9,7.18c-.13-.36-.55-.51-.88-.32l-2.52,1.45c-.26,.15-.37,.46-.27,.74l3.22,8.81c.1,.28-.01,.59-.27,.74L.31,21.41c-.26,.15-.37,.47-.27,.75l.9,2.39c.13,.35,.55,.5,.88,.31l4.47-2.58c.33-.19,.75-.04,.88,.32l2.59,7.03c.1,.28-.01,.59-.27,.74l-4.92,2.84c-.26,.15-.37,.47-.27,.75l.92,2.43c.13,.35,.55,.5,.88,.31l4.52-2.61c.33-.19,.75-.04,.88,.32l2.92,7.96c.13,.36,.55,.51,.88,.32l2.52-1.45c.26-.15,.37-.46,.27-.74l-3.07-8.35c-.1-.28,.01-.59,.27-.74l5.8-3.35c.33-.19,.75-.04,.88,.32l2.92,7.96c.13,.36,.55,.51,.88,.32l2.52-1.45c.26-.15,.37-.46,.27-.74l-3.03-8.38c-.1-.28,.01-.59,.27-.74l4.84-2.79c.26-.15,.37-.46,.27-.74l-.89-2.45c-.13-.36-.55-.51-.88-.32l-4.51,2.6c-.33,.19-.75,.04-.88-.32l-2.55-7.05c-.1-.28,.01-.59,.27-.74l4.88-2.82c.26-.15,.37-.46,.27-.74l-.87-2.4c-.13-.36-.55-.51-.88-.32Zm-8.58,11.43c.28,.73,.14,1.58-.31,2.25-.08,.11-.07,.26,.01,.37l2.39,3.29c.12,.16,.07,.39-.11,.49l-2.89,1.64c-.21,.12-.47-.01-.5-.25l-.5-4.17c-.02-.17-.16-.29-.32-.29-.7-.01-1.33-.42-1.61-1.14-.42-1.08,.1-2.44,1.16-3.04,1.06-.6,2.26-.22,2.68,.86Z" style="fill:#27baa0;"/><g><path d="M37.56,35.01V6.99h4.56v12.05h12.77V6.99h4.6v28.01h-4.6v-11.93h-12.77v11.93h-4.56Z" style="fill:#fff;"/><path d="M73.38,35.64c-1.08,0-2.11-.1-3.11-.31s-1.9-.57-2.72-1.07c-.82-.5-1.47-1.2-1.95-2.08-.48-.88-.73-1.98-.73-3.3,0-1.57,.3-2.86,.91-3.86,.61-1.01,1.48-1.76,2.61-2.27,1.13-.5,2.49-.76,4.06-.76,1.05,0,2,.08,2.84,.25s1.6,.4,2.28,.69c.68,.29,1.25,.62,1.72,.99l.46,2.9c-.61-.42-1.42-.78-2.45-1.07-1.02-.29-2.13-.44-3.32-.44-1.58,0-2.77,.28-3.59,.84-.82,.56-1.22,1.4-1.22,2.52,0,.84,.23,1.52,.71,2.04,.47,.52,1.06,.9,1.76,1.13,.7,.24,1.44,.36,2.22,.36,1.63,0,2.83-.11,3.61-.34s1.16-.74,1.16-1.55v-8.82c0-1.48-.44-2.57-1.33-3.25-.89-.69-2.14-1.03-3.77-1.03-1.16,0-2.36,.19-3.61,.57-1.24,.38-2.27,.9-3.07,1.58v-4.12c.77-.53,1.9-.96,3.38-1.28,1.48-.32,3.01-.48,4.58-.48,.77,0,1.55,.08,2.34,.23,.79,.15,1.53,.39,2.22,.71,.69,.32,1.31,.76,1.84,1.3,.54,.55,.96,1.21,1.26,1.99,.3,.78,.46,1.71,.46,2.77v10.08c0,1.37-.42,2.43-1.26,3.17-.84,.74-1.98,1.25-3.42,1.51-1.44,.27-3.07,.4-4.89,.4Z" style="fill:#fff;"/><path d="M95.11,35.64c-1.49,0-2.76-.16-3.79-.48s-2.05-.72-3.05-1.2v-4.16c.72,.45,1.42,.85,2.11,1.2,.69,.35,1.42,.62,2.18,.82,.76,.2,1.61,.29,2.55,.29,1.19,0,2.12-.25,2.8-.76,.68-.5,1.02-1.13,1.02-1.89,0-.64-.21-1.15-.64-1.51-.43-.36-.97-.67-1.64-.92-.66-.25-1.35-.5-2.07-.76-.75-.2-1.49-.43-2.24-.69-.75-.27-1.43-.63-2.05-1.09s-1.12-1.06-1.49-1.79c-.37-.73-.56-1.62-.56-2.69,0-1.18,.23-2.18,.7-3,.47-.83,1.08-1.5,1.85-2.02,.76-.52,1.6-.9,2.53-1.13,.93-.24,1.83-.36,2.72-.36,1.46,.03,2.66,.21,3.59,.55,.93,.34,1.83,.74,2.72,1.22l.04,3.78c-1-.53-1.94-.99-2.82-1.39-.89-.39-1.91-.59-3.07-.59-1.08,0-1.98,.2-2.7,.61-.72,.41-1.08,1-1.08,1.79,0,.67,.2,1.2,.6,1.6,.4,.39,.93,.7,1.58,.92,.65,.22,1.35,.45,2.09,.67,.69,.22,1.41,.46,2.16,.69,.75,.24,1.44,.58,2.07,1.03,.64,.45,1.15,1.04,1.55,1.76,.4,.73,.6,1.68,.6,2.86-.03,1.57-.44,2.84-1.22,3.82-.79,.98-1.82,1.69-3.09,2.14-1.27,.45-2.58,.67-3.94,.67Z" style="fill:#fff;"/><path d="M108.46,35.01V5.02h4.35v12.05l-1.29-1.09c1.08-.76,2.27-1.37,3.59-1.83,1.31-.46,2.59-.69,3.84-.69,1.63,0,3.03,.29,4.19,.86,1.16,.57,2.07,1.48,2.72,2.73,.65,1.25,.97,2.88,.97,4.89v13.06h-4.35v-12.52c0-1.71-.4-3.01-1.2-3.91-.8-.9-1.99-1.34-3.57-1.34-.83,0-1.67,.13-2.51,.38-.84,.25-1.64,.59-2.38,1.01l-.04,16.38h-4.31Z" style="fill:#fff;"/><path d="M137.28,35.01h-4.31V5.94h4.31v29.06Z" style="fill:#fff;"/><path d="M152.33,35.64c-3.37,0-5.88-.97-7.53-2.9-1.65-1.93-2.47-4.69-2.47-8.27,0-3.81,.85-6.6,2.55-8.38,1.7-1.78,4.15-2.67,7.36-2.67,2.29,0,4.19,.43,5.68,1.28,1.49,.85,2.6,2.11,3.32,3.76,.72,1.65,1.08,3.65,1.08,6.01,0,3.56-.86,6.31-2.59,8.25-1.73,1.95-4.2,2.92-7.4,2.92Zm-.04-3.74c1.41,0,2.53-.31,3.36-.95,.83-.63,1.43-1.5,1.8-2.62,.37-1.12,.56-2.41,.56-3.86,0-1.62-.19-2.98-.58-4.07-.39-1.09-1-1.91-1.82-2.46-.83-.55-1.94-.82-3.32-.82s-2.49,.29-3.32,.88c-.83,.59-1.42,1.43-1.78,2.52-.36,1.09-.54,2.41-.54,3.95,0,2.32,.43,4.14,1.29,5.46,.86,1.32,2.31,1.97,4.35,1.97Z" style="fill:#fff;"/><path d="M176.54,35.43c-1.27,0-2.52-.18-3.73-.55-1.22-.36-2.32-.96-3.3-1.79-.98-.83-1.76-1.93-2.34-3.32s-.87-3.11-.87-5.19,.28-3.91,.83-5.33c.55-1.43,1.31-2.57,2.28-3.42,.97-.85,2.07-1.46,3.3-1.83,1.23-.36,2.49-.55,3.79-.55,1.1,0,2.21,.1,3.32,.31,1.1,.21,2.13,.52,3.07,.94v3.95c-.94-.42-1.88-.75-2.82-.99-.94-.24-1.92-.36-2.94-.36-2.16,0-3.78,.55-4.87,1.64-1.09,1.09-1.64,2.86-1.64,5.29s.52,4.36,1.56,5.52c1.04,1.16,2.73,1.74,5.08,1.74,1.02,0,2.02-.13,2.99-.4,.97-.27,1.87-.59,2.7-.99v3.95c-.97,.45-1.98,.78-3.03,1.01-1.05,.22-2.17,.34-3.36,.34Z" style="fill:#fff;"/><path d="M192.25,35.01h-4.31V5.94h4.35l-.04,29.06Zm1.95-13.65l12.02,13.65h-5.6l-9.5-10.71,3.07-2.94Zm-2.86,1.43l8.5-8.86h5.35l-11.98,11.55-1.87-2.69Z" style="fill:#fff;"/><path d="M210.37,35.01v-4.91h4.93v4.91h-4.93Z" style="fill:#27baa0;"/></g><g id="b"/></svg>