<svg width="1920" height="782" viewBox="0 0 1920 782" fill="none" xmlns="http://www.w3.org/2000/svg">
<g opacity="0.1" clip-path="url(#clip0_10198_2647)">
<path d="M-137.746 178.605L-65.6502 53.7754H-44.3352L27.7087 178.605C22.9952 186.769 21.8103 188.814 17.0968 196.991H-127.134C-131.848 188.814 -133.033 186.769 -137.746 178.605Z" stroke="url(#paint0_linear_10198_2647)" stroke-width="3.90623" stroke-miterlimit="10"/>
<path d="M-30.3125 -6.86272L41.7834 -131.758C51.2235 -131.758 53.5802 -131.758 63.0203 -131.758L135.064 -6.91481L124.413 11.5486L-19.6876 11.5226C-24.4011 3.34555 -25.586 1.30129 -30.2995 -6.86272H-30.3125Z" stroke="url(#paint1_linear_10198_2647)" stroke-width="3.90623" stroke-miterlimit="10"/>
<path d="M194.4 11.5616L183.788 -6.82366L255.585 -131.133C265.025 -131.133 267.381 -131.133 276.808 -131.133L348.579 -6.81064C343.865 1.3664 342.68 3.39764 337.967 11.5747L194.387 11.5486L194.4 11.5616Z" stroke="url(#paint2_linear_10198_2647)" stroke-width="3.90623" stroke-miterlimit="10"/>
<path d="M183.827 45.858L194.478 27.3945L338.566 27.4206C343.28 35.5976 344.465 37.6419 349.178 45.8059L289.426 149.321L277.095 170.688C267.655 170.688 265.298 170.688 255.858 170.688L183.814 45.858H183.827Z" stroke="url(#paint3_linear_10198_2647)" stroke-width="3.90623" stroke-miterlimit="10"/>
<path d="M76.6787 178.605L148.775 53.7754H170.09L242.133 178.605C237.42 186.769 236.235 188.814 231.522 196.991H87.2906C82.5771 188.814 81.3922 186.769 76.6787 178.605Z" stroke="url(#paint4_linear_10198_2647)" stroke-width="3.90623" stroke-miterlimit="10"/>
<path d="M-19.0616 27.3691L124.505 27.3952L135.117 45.7805L63.3077 170.103C53.8677 170.103 51.5109 170.103 42.0709 170.103L-29.6865 45.7545C-24.973 37.5774 -23.7881 35.5462 -19.0616 27.3691Z" stroke="url(#paint5_linear_10198_2647)" stroke-width="3.90623" stroke-miterlimit="10"/>
<path d="M397.276 -6.86272L469.372 -131.758C478.812 -131.758 481.169 -131.758 490.609 -131.758L562.653 -6.91481L552.002 11.5486L407.901 11.5226C403.188 3.34555 402.003 1.30129 397.289 -6.86272H397.276Z" stroke="url(#paint6_linear_10198_2647)" stroke-width="3.90623" stroke-miterlimit="10"/>
<path d="M621.975 11.5486L611.376 -6.82366L683.172 -131.133C692.612 -131.133 694.969 -131.133 704.396 -131.133L776.167 -6.81064C771.453 1.3664 770.268 3.39764 765.555 11.5747L621.975 11.5486Z" stroke="url(#paint7_linear_10198_2647)" stroke-width="3.90623" stroke-miterlimit="10"/>
<path d="M611.415 45.858L622.066 27.3945L766.154 27.4206C770.868 35.5976 772.052 37.6419 776.766 45.8059L717.014 149.321L704.683 170.688C695.243 170.688 692.886 170.688 683.446 170.688L611.402 45.858H611.415Z" stroke="url(#paint8_linear_10198_2647)" stroke-width="3.90623" stroke-miterlimit="10"/>
<path d="M504.268 178.605L576.363 53.7754H597.678L669.722 178.605C665.009 186.769 663.824 188.814 659.11 196.991H514.88C510.166 188.814 508.981 186.769 504.268 178.605Z" stroke="url(#paint9_linear_10198_2647)" stroke-width="3.90623" stroke-miterlimit="10"/>
<path d="M408.527 27.3691L552.094 27.3952L562.706 45.7805L490.897 170.103C481.457 170.103 479.1 170.103 469.66 170.103L397.902 45.7545C402.616 37.5774 403.801 35.5462 408.527 27.3691Z" stroke="url(#paint10_linear_10198_2647)" stroke-width="3.90623" stroke-miterlimit="10"/>
<path d="M718.369 178.605L790.465 53.7754H811.78L883.824 178.605C879.11 186.769 877.926 188.814 873.212 196.991H728.981C724.268 188.814 723.083 186.769 718.369 178.605Z" stroke="url(#paint11_linear_10198_2647)" stroke-width="3.90623" stroke-miterlimit="10"/>
<path d="M824.086 -6.86272L896.182 -131.758C905.622 -131.758 907.979 -131.758 917.419 -131.758L989.463 -6.91481L978.812 11.5486L834.711 11.5226C829.997 3.34555 828.812 1.30129 824.099 -6.86272H824.086Z" stroke="url(#paint12_linear_10198_2647)" stroke-width="3.90623" stroke-miterlimit="10"/>
<path d="M1048.77 11.5486L1038.17 -6.82366L1109.97 -131.133C1119.41 -131.133 1121.76 -131.133 1131.19 -131.133L1202.96 -6.81064C1198.25 1.3664 1197.06 3.39764 1192.35 11.5747L1048.77 11.5486Z" stroke="url(#paint13_linear_10198_2647)" stroke-width="3.90623" stroke-miterlimit="10"/>
<path d="M1038.21 45.858L1048.86 27.3945L1192.95 27.4206C1197.66 35.5976 1198.85 37.6419 1203.56 45.8059L1143.81 149.321L1131.48 170.688C1122.04 170.688 1119.68 170.688 1110.24 170.688L1038.2 45.858H1038.21Z" stroke="url(#paint14_linear_10198_2647)" stroke-width="3.90623" stroke-miterlimit="10"/>
<path d="M931.074 178.605L1003.17 53.7754H1024.49L1096.53 178.605C1091.82 186.769 1090.63 188.814 1085.92 196.991H941.686C936.973 188.814 935.788 186.769 931.074 178.605Z" stroke="url(#paint15_linear_10198_2647)" stroke-width="3.90623" stroke-miterlimit="10"/>
<path d="M835.319 27.3691L978.886 27.3952L989.498 45.7805L917.689 170.103C908.249 170.103 905.892 170.103 896.452 170.103L824.694 45.7545C829.408 37.5774 830.593 35.5462 835.319 27.3691Z" stroke="url(#paint16_linear_10198_2647)" stroke-width="3.90623" stroke-miterlimit="10"/>
<path d="M1250.9 -6.86272L1323 -131.758C1332.44 -131.758 1334.8 -131.758 1344.24 -131.758L1416.28 -6.91481L1405.63 11.5486L1261.53 11.5226C1256.82 3.34555 1255.63 1.30129 1250.92 -6.86272H1250.9Z" stroke="url(#paint17_linear_10198_2647)" stroke-width="3.90623" stroke-miterlimit="10"/>
<path d="M1475.59 11.5486L1464.99 -6.82366L1536.79 -131.133C1546.23 -131.133 1548.58 -131.133 1558.01 -131.133L1629.78 -6.81064C1625.07 1.3664 1623.88 3.39764 1619.17 11.5747L1475.59 11.5486Z" stroke="url(#paint18_linear_10198_2647)" stroke-width="3.90623" stroke-miterlimit="10"/>
<path d="M1465.03 45.858L1475.68 27.3945L1619.77 27.4206C1624.48 35.5976 1625.67 37.6419 1630.38 45.8059L1570.63 149.321L1558.3 170.688C1548.86 170.688 1546.5 170.688 1537.06 170.688L1465.02 45.858H1465.03Z" stroke="url(#paint19_linear_10198_2647)" stroke-width="3.90623" stroke-miterlimit="10"/>
<path d="M1357.9 178.605L1429.99 53.7754H1451.31L1523.35 178.605C1518.64 186.769 1517.45 188.814 1512.74 196.991H1368.51C1363.79 188.814 1362.61 186.769 1357.9 178.605Z" stroke="url(#paint20_linear_10198_2647)" stroke-width="3.90623" stroke-miterlimit="10"/>
<path d="M1262.14 27.3691L1405.71 27.3952L1416.32 45.7805L1344.51 170.103C1335.07 170.103 1332.71 170.103 1323.27 170.103L1251.52 45.7545C1256.23 37.5774 1257.42 35.5462 1262.14 27.3691Z" stroke="url(#paint21_linear_10198_2647)" stroke-width="3.90623" stroke-miterlimit="10"/>
<path d="M1678.26 -6.86272L1750.35 -131.758C1759.79 -131.758 1762.15 -131.758 1771.59 -131.758L1843.63 -6.91481L1832.98 11.5486L1688.88 11.5226C1684.17 3.34555 1682.98 1.30129 1678.27 -6.86272H1678.26Z" stroke="url(#paint22_linear_10198_2647)" stroke-width="3.90623" stroke-miterlimit="10"/>
<path d="M1902.96 11.5616L1892.34 -6.82366L1964.14 -131.133C1973.58 -131.133 1975.94 -131.133 1985.36 -131.133L2057.13 -6.81064C2052.42 1.3664 2051.24 3.39764 2046.52 11.5747L1902.96 11.5616Z" stroke="url(#paint23_linear_10198_2647)" stroke-width="3.90623" stroke-miterlimit="10"/>
<path d="M1892.37 45.858L1903.03 27.3945L2047.12 27.4206C2051.83 35.5976 2053.02 37.6419 2057.73 45.8059L1997.98 149.321L1985.65 170.688C1976.21 170.688 1973.85 170.688 1964.41 170.688L1892.37 45.858Z" stroke="url(#paint24_linear_10198_2647)" stroke-width="3.90623" stroke-miterlimit="10"/>
<path d="M1785.25 178.605L1857.34 53.7754H1878.66L1950.7 178.605C1945.99 186.769 1944.81 188.814 1940.09 196.991H1795.86C1791.15 188.814 1789.96 186.769 1785.25 178.605Z" stroke="url(#paint25_linear_10198_2647)" stroke-width="3.90623" stroke-miterlimit="10"/>
<path d="M1689.49 27.3691L1833.06 27.3952L1843.67 45.7805L1771.86 170.103C1762.42 170.103 1760.07 170.103 1750.63 170.103L1678.87 45.7545C1683.58 37.5774 1684.77 35.5462 1689.49 27.3691Z" stroke="url(#paint26_linear_10198_2647)" stroke-width="3.90623" stroke-miterlimit="10"/>
<path d="M301.143 197.017L290.531 178.631L362.328 54.3223C371.768 54.3223 374.125 54.3223 383.552 54.3223L455.322 178.644C450.608 186.821 449.424 188.853 444.71 197.03L301.143 197.017Z" stroke="url(#paint27_linear_10198_2647)" stroke-width="3.90623" stroke-miterlimit="10"/>
<path d="M1155.4 197.004L1144.8 178.631L1216.59 54.3223C1226.03 54.3223 1228.39 54.3223 1237.82 54.3223L1309.59 178.644C1304.88 186.821 1303.69 188.853 1298.98 197.03L1155.4 197.004Z" stroke="url(#paint28_linear_10198_2647)" stroke-width="3.90623" stroke-miterlimit="10"/>
<path d="M1582.52 197.004L1571.92 178.631L1643.71 54.3223C1653.15 54.3223 1655.51 54.3223 1664.94 54.3223L1736.71 178.644C1732 186.821 1730.81 188.853 1726.1 197.03L1582.52 197.004Z" stroke="url(#paint29_linear_10198_2647)" stroke-width="3.90623" stroke-miterlimit="10"/>
<path d="M-65.7032 356.651L-137.747 231.821C-133.034 223.657 -131.849 221.613 -127.135 213.436H17.0958C21.8093 221.613 22.9942 223.657 27.7077 231.821L-44.3882 356.651H-65.7032Z" stroke="url(#paint30_linear_10198_2647)" stroke-width="3.90623" stroke-miterlimit="10"/>
<path d="M362.562 356.651L290.519 231.821C295.232 223.657 296.417 221.613 301.13 213.436H445.361C450.075 221.613 451.26 223.657 455.973 231.821L383.877 356.651H362.562Z" stroke="url(#paint31_linear_10198_2647)" stroke-width="3.90623" stroke-miterlimit="10"/>
<path d="M1217.65 356.651L1145.6 231.821C1150.32 223.657 1151.5 221.613 1156.22 213.436H1300.45C1305.16 221.613 1306.35 223.657 1311.06 231.821L1238.96 356.651H1217.65Z" stroke="url(#paint32_linear_10198_2647)" stroke-width="3.90623" stroke-miterlimit="10"/>
<path d="M1645.19 356.651L1573.14 231.821C1577.86 223.657 1579.04 221.613 1583.75 213.436H1727.98C1732.7 221.613 1733.88 223.657 1738.6 231.821L1666.5 356.651H1645.19Z" stroke="url(#paint33_linear_10198_2647)" stroke-width="3.90623" stroke-miterlimit="10"/>
<path d="M-137.747 550.088L-65.6511 425.258H-44.3362L27.7077 550.088C22.9942 558.252 21.8093 560.296 17.0958 568.473H-127.135C-131.849 560.296 -133.034 558.252 -137.747 550.088Z" stroke="url(#paint34_linear_10198_2647)" stroke-width="3.90623" stroke-miterlimit="10"/>
<path d="M-30.3145 364.62L41.7815 239.725C51.2215 239.725 53.5783 239.725 63.0183 239.725L135.062 364.568L124.411 383.031L-19.6895 383.005C-24.403 374.828 -25.5879 372.784 -30.3014 364.62H-30.3145Z" stroke="url(#paint35_linear_10198_2647)" stroke-width="3.90623" stroke-miterlimit="10"/>
<path d="M148.786 356.651L76.7422 231.821C81.4557 223.657 82.6406 221.613 87.3541 213.436H231.585C236.299 221.613 237.483 223.657 242.197 231.821L170.101 356.651H148.786Z" stroke="url(#paint36_linear_10198_2647)" stroke-width="3.90623" stroke-miterlimit="10"/>
<path d="M194.398 383.044L183.786 364.659L255.583 240.35C265.023 240.35 267.379 240.35 276.806 240.35L348.577 364.672C343.863 372.849 342.678 374.88 337.965 383.057L194.385 383.031L194.398 383.044Z" stroke="url(#paint37_linear_10198_2647)" stroke-width="3.90623" stroke-miterlimit="10"/>
<path d="M183.826 417.34L194.477 398.877L338.564 398.903C343.278 407.08 344.463 409.124 349.176 417.288L289.424 520.803L277.093 542.17C267.653 542.17 265.296 542.17 255.856 542.17L183.812 417.34H183.826Z" stroke="url(#paint38_linear_10198_2647)" stroke-width="3.90623" stroke-miterlimit="10"/>
<path d="M76.6768 550.088L148.773 425.258H170.088L242.132 550.088C237.418 558.252 236.233 560.296 231.52 568.473H87.2887C82.5752 560.296 81.3903 558.252 76.6768 550.088Z" stroke="url(#paint39_linear_10198_2647)" stroke-width="3.90623" stroke-miterlimit="10"/>
<path d="M-19.0635 398.852L124.503 398.878L135.115 417.263L63.3058 541.585H42.0689L-29.6885 417.237C-24.975 409.06 -23.7901 407.029 -19.0635 398.852Z" stroke="url(#paint40_linear_10198_2647)" stroke-width="3.90623" stroke-miterlimit="10"/>
<path d="M397.288 364.62L469.371 239.725C478.811 239.725 481.167 239.725 490.607 239.725L562.651 364.568L552 383.031L407.9 383.005C403.186 374.828 402.002 372.784 397.288 364.62Z" stroke="url(#paint41_linear_10198_2647)" stroke-width="3.90623" stroke-miterlimit="10"/>
<path d="M576.376 356.651L504.332 231.821C509.046 223.657 510.23 221.613 514.944 213.436H659.175C663.888 221.613 665.073 223.657 669.787 231.821L597.691 356.651H576.376Z" stroke="url(#paint42_linear_10198_2647)" stroke-width="3.90623" stroke-miterlimit="10"/>
<path d="M621.987 383.044L611.375 364.659L683.171 240.35C692.612 240.35 694.968 240.35 704.395 240.35L776.166 364.672C771.452 372.849 770.267 374.88 765.554 383.057L621.974 383.031L621.987 383.044Z" stroke="url(#paint43_linear_10198_2647)" stroke-width="3.90623" stroke-miterlimit="10"/>
<path d="M611.414 417.34L622.065 398.877L766.153 398.903C770.867 407.08 772.051 409.124 776.765 417.288L717.013 520.803L704.682 542.17C695.242 542.17 692.885 542.17 683.445 542.17L611.401 417.34H611.414Z" stroke="url(#paint44_linear_10198_2647)" stroke-width="3.90623" stroke-miterlimit="10"/>
<path d="M504.266 550.088L576.362 425.258H597.677L669.72 550.088C665.007 558.252 663.822 560.296 659.108 568.473H514.878C510.164 560.296 508.979 558.252 504.266 550.088Z" stroke="url(#paint45_linear_10198_2647)" stroke-width="3.90623" stroke-miterlimit="10"/>
<path d="M408.525 398.852L552.092 398.878L562.704 417.263L490.895 541.585H469.658L397.9 417.237C402.614 409.06 403.799 407.029 408.525 398.852Z" stroke="url(#paint46_linear_10198_2647)" stroke-width="3.90623" stroke-miterlimit="10"/>
<path d="M790.477 356.651L718.434 231.821C723.147 223.657 724.332 221.613 729.045 213.436H873.276C877.99 221.613 879.175 223.657 883.888 231.821L811.792 356.651H790.477Z" stroke="url(#paint47_linear_10198_2647)" stroke-width="3.90623" stroke-miterlimit="10"/>
<path d="M718.368 550.088L790.464 425.258H811.779L883.823 550.088C879.109 558.252 877.925 560.296 873.211 568.473H728.98C724.267 560.296 723.082 558.252 718.368 550.088Z" stroke="url(#paint48_linear_10198_2647)" stroke-width="3.90623" stroke-miterlimit="10"/>
<path d="M824.098 364.62L896.18 239.725C905.62 239.725 907.977 239.725 917.417 239.725L989.461 364.568L978.81 383.031L834.709 383.005C829.996 374.828 828.811 372.784 824.098 364.62Z" stroke="url(#paint49_linear_10198_2647)" stroke-width="3.90623" stroke-miterlimit="10"/>
<path d="M1003.18 356.651L931.139 231.821C935.852 223.657 937.037 221.613 941.751 213.436H1085.98C1090.69 221.613 1091.88 223.657 1096.59 231.821L1024.5 356.651H1003.18Z" stroke="url(#paint50_linear_10198_2647)" stroke-width="3.90623" stroke-miterlimit="10"/>
<path d="M1048.78 383.044L1038.17 364.659L1109.97 240.35C1119.41 240.35 1121.76 240.35 1131.19 240.35L1202.96 364.672C1198.25 372.849 1197.06 374.88 1192.35 383.057L1048.77 383.031L1048.78 383.044Z" stroke="url(#paint51_linear_10198_2647)" stroke-width="3.90623" stroke-miterlimit="10"/>
<path d="M1038.21 417.34L1048.86 398.877L1192.95 398.903C1197.66 407.08 1198.84 409.124 1203.56 417.288L1143.81 520.803L1131.48 542.17C1122.04 542.17 1119.68 542.17 1110.24 542.17L1038.19 417.34H1038.21Z" stroke="url(#paint52_linear_10198_2647)" stroke-width="3.90623" stroke-miterlimit="10"/>
<path d="M931.073 550.088L1003.17 425.258H1024.48L1096.53 550.088C1091.81 558.252 1090.63 560.296 1085.92 568.473H941.685C936.972 560.296 935.787 558.252 931.073 550.088Z" stroke="url(#paint53_linear_10198_2647)" stroke-width="3.90623" stroke-miterlimit="10"/>
<path d="M835.318 398.852L978.885 398.878L989.497 417.263L917.688 541.585H896.451L824.693 417.237C829.407 409.06 830.592 407.029 835.318 398.852Z" stroke="url(#paint54_linear_10198_2647)" stroke-width="3.90623" stroke-miterlimit="10"/>
<path d="M1250.92 364.62L1323 239.725C1332.44 239.725 1334.8 239.725 1344.24 239.725L1416.28 364.568L1405.63 383.031L1261.53 383.005C1256.81 374.828 1255.63 372.784 1250.92 364.62Z" stroke="url(#paint55_linear_10198_2647)" stroke-width="3.90623" stroke-miterlimit="10"/>
<path d="M1430 356.651L1357.96 231.821C1362.67 223.657 1363.86 221.613 1368.57 213.436H1512.8C1517.51 221.613 1518.7 223.657 1523.41 231.821L1451.32 356.651H1430Z" stroke="url(#paint56_linear_10198_2647)" stroke-width="3.90623" stroke-miterlimit="10"/>
<path d="M1475.6 383.044L1464.99 364.659L1536.79 240.35C1546.23 240.35 1548.58 240.35 1558.01 240.35L1629.78 364.672C1625.07 372.849 1623.88 374.88 1619.17 383.057L1475.59 383.031L1475.6 383.044Z" stroke="url(#paint57_linear_10198_2647)" stroke-width="3.90623" stroke-miterlimit="10"/>
<path d="M1465.03 417.34L1475.68 398.877L1619.77 398.903C1624.48 407.08 1625.67 409.124 1630.38 417.288L1570.63 520.803L1558.3 542.17C1548.86 542.17 1546.5 542.17 1537.06 542.17L1465.02 417.34H1465.03Z" stroke="url(#paint58_linear_10198_2647)" stroke-width="3.90623" stroke-miterlimit="10"/>
<path d="M1357.89 550.088L1429.99 425.258H1451.3L1523.35 550.088C1518.63 558.252 1517.45 560.296 1512.74 568.473H1368.51C1363.79 560.296 1362.61 558.252 1357.89 550.088Z" stroke="url(#paint59_linear_10198_2647)" stroke-width="3.90623" stroke-miterlimit="10"/>
<path d="M1262.14 398.852L1405.71 398.878L1416.32 417.263L1344.51 541.585H1323.27L1251.51 417.237C1256.23 409.06 1257.41 407.029 1262.14 398.852Z" stroke="url(#paint60_linear_10198_2647)" stroke-width="3.90623" stroke-miterlimit="10"/>
<path d="M1678.27 364.62L1750.35 239.725C1759.79 239.725 1762.15 239.725 1771.59 239.725L1843.63 364.568L1832.98 383.031L1688.88 383.005C1684.17 374.828 1682.98 372.784 1678.27 364.62Z" stroke="url(#paint61_linear_10198_2647)" stroke-width="3.90623" stroke-miterlimit="10"/>
<path d="M1857.36 356.651L1785.31 231.821C1790.03 223.657 1791.21 221.613 1795.93 213.436H1940.16C1944.87 221.613 1946.05 223.657 1950.77 231.821L1878.67 356.651H1857.36Z" stroke="url(#paint62_linear_10198_2647)" stroke-width="3.90623" stroke-miterlimit="10"/>
<path d="M1902.96 383.044L1892.34 364.659L1964.14 240.35C1973.58 240.35 1975.94 240.35 1985.36 240.35L2057.13 364.672C2052.42 372.849 2051.24 374.88 2046.52 383.057L1902.96 383.044Z" stroke="url(#paint63_linear_10198_2647)" stroke-width="3.90623" stroke-miterlimit="10"/>
<path d="M1892.38 417.34L1903.03 398.877L2047.12 398.903C2051.83 407.08 2053.02 409.124 2057.73 417.288L1997.98 520.803L1985.65 542.17C1976.21 542.17 1973.85 542.17 1964.41 542.17L1892.37 417.34H1892.38Z" stroke="url(#paint64_linear_10198_2647)" stroke-width="3.90623" stroke-miterlimit="10"/>
<path d="M1785.25 550.088L1857.34 425.258H1878.66L1950.7 550.088C1945.99 558.252 1944.81 560.296 1940.09 568.473H1795.86C1791.15 560.296 1789.96 558.252 1785.25 550.088Z" stroke="url(#paint65_linear_10198_2647)" stroke-width="3.90623" stroke-miterlimit="10"/>
<path d="M1689.49 398.852L1833.06 398.878L1843.67 417.263L1771.86 541.585H1750.62L1678.87 417.237C1683.58 409.06 1684.77 407.029 1689.49 398.852Z" stroke="url(#paint66_linear_10198_2647)" stroke-width="3.90623" stroke-miterlimit="10"/>
<path d="M301.143 568.485L290.531 550.1L362.328 425.791C371.768 425.791 374.125 425.791 383.552 425.791L455.322 550.113C450.608 558.29 449.424 560.321 444.71 568.498L301.13 568.472L301.143 568.485Z" stroke="url(#paint67_linear_10198_2647)" stroke-width="3.90623" stroke-miterlimit="10"/>
<path d="M1155.41 568.485L1144.8 550.1L1216.59 425.791C1226.03 425.791 1228.39 425.791 1237.82 425.791L1309.59 550.113C1304.87 558.29 1303.69 560.321 1298.98 568.498L1155.4 568.472L1155.41 568.485Z" stroke="url(#paint68_linear_10198_2647)" stroke-width="3.90623" stroke-miterlimit="10"/>
<path d="M1582.53 568.485L1571.92 550.1L1643.71 425.791C1653.15 425.791 1655.51 425.791 1664.94 425.791L1736.71 550.113C1731.99 558.29 1730.81 560.321 1726.1 568.498L1582.52 568.472L1582.53 568.485Z" stroke="url(#paint69_linear_10198_2647)" stroke-width="3.90623" stroke-miterlimit="10"/>
<path d="M-65.7032 728.172L-137.747 603.342C-133.034 595.178 -131.849 593.134 -127.135 584.957H17.0958C21.8093 593.134 22.9942 595.178 27.7077 603.342L-44.3882 728.172H-65.7032Z" stroke="url(#paint70_linear_10198_2647)" stroke-width="3.90623" stroke-miterlimit="10"/>
<path d="M362.562 728.172L290.519 603.342C295.232 595.178 296.417 593.134 301.13 584.957H445.361C450.075 593.134 451.26 595.178 455.973 603.342L383.877 728.172H362.562Z" stroke="url(#paint71_linear_10198_2647)" stroke-width="3.90623" stroke-miterlimit="10"/>
<path d="M1217.65 728.172L1145.6 603.342C1150.32 595.178 1151.5 593.134 1156.22 584.957H1300.45C1305.16 593.134 1306.35 595.178 1311.06 603.342L1238.96 728.172H1217.65Z" stroke="url(#paint72_linear_10198_2647)" stroke-width="3.90623" stroke-miterlimit="10"/>
<path d="M1645.19 728.172L1573.14 603.342C1577.86 595.178 1579.04 593.134 1583.75 584.957H1727.98C1732.7 593.134 1733.88 595.178 1738.6 603.342L1666.5 728.172H1645.19Z" stroke="url(#paint73_linear_10198_2647)" stroke-width="3.90623" stroke-miterlimit="10"/>
<path d="M-30.3145 736.127L41.7815 611.232C51.2215 611.232 53.5783 611.232 63.0183 611.232L135.062 736.075L124.411 754.539L-19.6895 754.513C-24.403 746.336 -25.5879 744.292 -30.3014 736.127H-30.3145Z" stroke="url(#paint74_linear_10198_2647)" stroke-width="3.90623" stroke-miterlimit="10"/>
<path d="M148.786 728.172L76.7422 603.342C81.4557 595.178 82.6406 593.134 87.3541 584.957H231.585C236.299 593.134 237.483 595.178 242.197 603.342L170.101 728.172H148.786Z" stroke="url(#paint75_linear_10198_2647)" stroke-width="3.90623" stroke-miterlimit="10"/>
<path d="M194.398 754.552L183.786 736.167L255.583 611.857C265.023 611.857 267.379 611.857 276.806 611.857L348.577 736.18C343.863 744.357 342.678 746.388 337.965 754.565L194.398 754.552Z" stroke="url(#paint76_linear_10198_2647)" stroke-width="3.90623" stroke-miterlimit="10"/>
<path d="M183.826 788.862L194.477 770.398L338.564 770.425C343.278 778.602 344.463 780.646 349.176 788.81L289.424 892.325L277.093 913.692C267.653 913.692 265.296 913.692 255.856 913.692L183.812 788.862H183.826Z" stroke="url(#paint77_linear_10198_2647)" stroke-width="3.90623" stroke-miterlimit="10"/>
<path d="M-19.0635 770.359L124.503 770.385L135.115 788.771L63.3058 913.093C53.8657 913.093 51.509 913.093 42.0689 913.093L-29.6885 788.745C-24.975 780.568 -23.7901 778.536 -19.0635 770.359Z" stroke="url(#paint78_linear_10198_2647)" stroke-width="3.90623" stroke-miterlimit="10"/>
<path d="M397.289 736.127L469.372 611.232C478.812 611.232 481.168 611.232 490.608 611.232L562.652 736.075L552.001 754.539L407.901 754.513C403.187 746.336 402.003 744.292 397.289 736.127Z" stroke="url(#paint79_linear_10198_2647)" stroke-width="3.90623" stroke-miterlimit="10"/>
<path d="M576.377 728.172L504.333 603.342C509.047 595.178 510.231 593.134 514.945 584.957H659.176C663.889 593.134 665.074 595.178 669.788 603.342L597.692 728.172H576.377Z" stroke="url(#paint80_linear_10198_2647)" stroke-width="3.90623" stroke-miterlimit="10"/>
<path d="M621.974 754.539L611.375 736.167L683.171 611.857C692.612 611.857 694.968 611.857 704.395 611.857L776.166 736.18C771.452 744.357 770.267 746.388 765.554 754.565L621.974 754.539Z" stroke="url(#paint81_linear_10198_2647)" stroke-width="3.90623" stroke-miterlimit="10"/>
<path d="M611.415 788.862L622.066 770.398L766.154 770.425C770.868 778.602 772.052 780.646 776.766 788.81L717.014 892.325L704.683 913.692C695.243 913.692 692.886 913.692 683.446 913.692L611.402 788.862H611.415Z" stroke="url(#paint82_linear_10198_2647)" stroke-width="3.90623" stroke-miterlimit="10"/>
<path d="M408.526 770.359L552.093 770.385L562.705 788.771L490.896 913.093C481.456 913.093 479.099 913.093 469.659 913.093L397.901 788.745C402.615 780.568 403.8 778.536 408.526 770.359Z" stroke="url(#paint83_linear_10198_2647)" stroke-width="3.90623" stroke-miterlimit="10"/>
<path d="M790.477 728.172L718.434 603.342C723.147 595.178 724.332 593.134 729.045 584.957H873.276C877.99 593.134 879.175 595.178 883.888 603.342L811.792 728.172H790.477Z" stroke="url(#paint84_linear_10198_2647)" stroke-width="3.90623" stroke-miterlimit="10"/>
<path d="M824.085 736.129L896.181 611.234C905.621 611.234 907.978 611.234 917.418 611.234L989.462 736.077L978.811 754.541L834.71 754.515C829.996 746.338 828.798 744.293 824.085 736.129Z" stroke="url(#paint85_linear_10198_2647)" stroke-width="3.90623" stroke-miterlimit="10"/>
<path d="M1003.18 728.172L931.139 603.342C935.852 595.178 937.037 593.134 941.751 584.957H1085.98C1090.69 593.134 1091.88 595.178 1096.59 603.342L1024.5 728.172H1003.18Z" stroke="url(#paint86_linear_10198_2647)" stroke-width="3.90623" stroke-miterlimit="10"/>
<path d="M1048.77 754.539L1038.17 736.167L1109.97 611.857C1119.41 611.857 1121.76 611.857 1131.19 611.857L1202.96 736.18C1198.25 744.357 1197.06 746.388 1192.35 754.565L1048.77 754.539Z" stroke="url(#paint87_linear_10198_2647)" stroke-width="3.90623" stroke-miterlimit="10"/>
<path d="M1038.21 788.862L1048.86 770.398L1192.95 770.425C1197.66 778.602 1198.84 780.646 1203.56 788.81L1143.81 892.325L1131.48 913.692C1122.04 913.692 1119.68 913.692 1110.24 913.692L1038.19 788.862H1038.21Z" stroke="url(#paint88_linear_10198_2647)" stroke-width="3.90623" stroke-miterlimit="10"/>
<path d="M835.318 770.359L978.885 770.385L989.497 788.771L917.688 913.093C908.248 913.093 905.891 913.093 896.451 913.093L824.693 788.745C829.407 780.568 830.592 778.536 835.318 770.359Z" stroke="url(#paint89_linear_10198_2647)" stroke-width="3.90623" stroke-miterlimit="10"/>
<path d="M1250.9 736.127L1323 611.232C1332.44 611.232 1334.8 611.232 1344.24 611.232L1416.28 736.075L1405.63 754.539L1261.53 754.513C1256.81 746.336 1255.62 744.292 1250.9 736.127Z" stroke="url(#paint90_linear_10198_2647)" stroke-width="3.90623" stroke-miterlimit="10"/>
<path d="M1430 728.172L1357.96 603.342C1362.67 595.178 1363.86 593.134 1368.57 584.957H1512.8C1517.51 593.134 1518.7 595.178 1523.41 603.342L1451.32 728.172H1430Z" stroke="url(#paint91_linear_10198_2647)" stroke-width="3.90623" stroke-miterlimit="10"/>
<path d="M1475.59 754.539L1464.99 736.167L1536.79 611.857C1546.23 611.857 1548.58 611.857 1558.01 611.857L1629.78 736.18C1625.07 744.357 1623.88 746.388 1619.17 754.565L1475.59 754.539Z" stroke="url(#paint92_linear_10198_2647)" stroke-width="3.90623" stroke-miterlimit="10"/>
<path d="M1465.03 788.862L1475.68 770.398L1619.77 770.425C1624.48 778.602 1625.67 780.646 1630.38 788.81L1570.63 892.325L1558.3 913.692C1548.86 913.692 1546.5 913.692 1537.06 913.692L1465.02 788.862H1465.03Z" stroke="url(#paint93_linear_10198_2647)" stroke-width="3.90623" stroke-miterlimit="10"/>
<path d="M1262.14 770.359L1405.71 770.385L1416.32 788.771L1344.51 913.093C1335.07 913.093 1332.71 913.093 1323.27 913.093L1251.51 788.745C1256.23 780.568 1257.41 778.536 1262.14 770.359Z" stroke="url(#paint94_linear_10198_2647)" stroke-width="3.90623" stroke-miterlimit="10"/>
<path d="M1678.27 736.127L1750.35 611.232C1759.79 611.232 1762.15 611.232 1771.59 611.232L1843.63 736.075L1832.98 754.539L1688.88 754.513C1684.17 746.336 1682.98 744.292 1678.27 736.127Z" stroke="url(#paint95_linear_10198_2647)" stroke-width="3.90623" stroke-miterlimit="10"/>
<path d="M1857.36 728.172L1785.31 603.342C1790.03 595.178 1791.21 593.134 1795.93 584.957H1940.16C1944.87 593.134 1946.05 595.178 1950.77 603.342L1878.67 728.172H1857.36Z" stroke="url(#paint96_linear_10198_2647)" stroke-width="3.90623" stroke-miterlimit="10"/>
<path d="M1902.94 754.539L1892.34 736.167L1964.14 611.857C1973.58 611.857 1975.94 611.857 1985.36 611.857L2057.13 736.18C2052.42 744.357 2051.24 746.388 2046.52 754.565L1902.94 754.539Z" stroke="url(#paint97_linear_10198_2647)" stroke-width="3.90623" stroke-miterlimit="10"/>
<path d="M1892.38 788.862L1903.03 770.398L2047.12 770.425C2051.83 778.602 2053.02 780.646 2057.73 788.81L1997.98 892.325L1985.65 913.692C1976.21 913.692 1973.85 913.692 1964.41 913.692L1892.37 788.862H1892.38Z" stroke="url(#paint98_linear_10198_2647)" stroke-width="3.90623" stroke-miterlimit="10"/>
<path d="M1689.49 770.359L1833.06 770.385L1843.67 788.771L1771.86 913.093C1762.42 913.093 1760.06 913.093 1750.62 913.093L1678.87 788.745C1683.58 780.568 1684.77 778.536 1689.49 770.359Z" stroke="url(#paint99_linear_10198_2647)" stroke-width="3.90623" stroke-miterlimit="10"/>
</g>
<defs>
<linearGradient id="paint0_linear_10198_2647" x1="-28.7233" y1="54.9082" x2="-62.3169" y2="212.967" gradientUnits="userSpaceOnUse">
<stop offset="0.02" stop-color="#4A33CC"/>
<stop offset="1" stop-color="white"/>
</linearGradient>
<linearGradient id="paint1_linear_10198_2647" x1="140.897" y1="-16.7194" x2="-9.10169" y2="-71.3155" gradientUnits="userSpaceOnUse">
<stop offset="0.02" stop-color="#4A33CC"/>
<stop offset="1" stop-color="white"/>
</linearGradient>
<linearGradient id="paint2_linear_10198_2647" x1="181.522" y1="-59.7791" x2="350.844" y2="-59.7791" gradientUnits="userSpaceOnUse">
<stop offset="0.02" stop-color="#4A33CC"/>
<stop offset="1" stop-color="white"/>
</linearGradient>
<linearGradient id="paint3_linear_10198_2647" x1="327.98" y1="110.259" x2="177.994" y2="55.6756" gradientUnits="userSpaceOnUse">
<stop offset="0.04" stop-color="#29FFB2"/>
<stop offset="1" stop-color="#4326A7"/>
</linearGradient>
<linearGradient id="paint4_linear_10198_2647" x1="189.855" y1="56.4837" x2="150.35" y2="214.959" gradientUnits="userSpaceOnUse">
<stop offset="0.02" stop-color="#4A33CC"/>
<stop offset="1" stop-color="white"/>
</linearGradient>
<linearGradient id="paint5_linear_10198_2647" x1="4.49296" y1="108.905" x2="131.484" y2="35.5853" gradientUnits="userSpaceOnUse">
<stop offset="0.04" stop-color="#29FFB2"/>
<stop offset="1" stop-color="#4326A7"/>
</linearGradient>
<linearGradient id="paint6_linear_10198_2647" x1="568.486" y1="-16.7194" x2="418.487" y2="-71.3155" gradientUnits="userSpaceOnUse">
<stop offset="0.02" stop-color="#4A33CC"/>
<stop offset="1" stop-color="white"/>
</linearGradient>
<linearGradient id="paint7_linear_10198_2647" x1="609.11" y1="-59.7791" x2="778.432" y2="-59.7791" gradientUnits="userSpaceOnUse">
<stop offset="0.02" stop-color="#4A33CC"/>
<stop offset="1" stop-color="white"/>
</linearGradient>
<linearGradient id="paint8_linear_10198_2647" x1="755.568" y1="110.259" x2="605.582" y2="55.6756" gradientUnits="userSpaceOnUse">
<stop offset="0.04" stop-color="#29FFB2"/>
<stop offset="1" stop-color="#4326A7"/>
</linearGradient>
<linearGradient id="paint9_linear_10198_2647" x1="617.444" y1="56.4837" x2="577.939" y2="214.959" gradientUnits="userSpaceOnUse">
<stop offset="0.02" stop-color="#4A33CC"/>
<stop offset="1" stop-color="white"/>
</linearGradient>
<linearGradient id="paint10_linear_10198_2647" x1="432.082" y1="108.905" x2="559.073" y2="35.5852" gradientUnits="userSpaceOnUse">
<stop offset="0.04" stop-color="#29FFB2"/>
<stop offset="1" stop-color="#4326A7"/>
</linearGradient>
<linearGradient id="paint11_linear_10198_2647" x1="831.546" y1="56.4837" x2="792.028" y2="214.959" gradientUnits="userSpaceOnUse">
<stop offset="0.02" stop-color="#4A33CC"/>
<stop offset="1" stop-color="white"/>
</linearGradient>
<linearGradient id="paint12_linear_10198_2647" x1="995.283" y1="-16.7194" x2="845.284" y2="-71.3155" gradientUnits="userSpaceOnUse">
<stop offset="0.02" stop-color="#4A33CC"/>
<stop offset="1" stop-color="white"/>
</linearGradient>
<linearGradient id="paint13_linear_10198_2647" x1="1035.92" y1="-59.7791" x2="1205.24" y2="-59.7791" gradientUnits="userSpaceOnUse">
<stop offset="0.02" stop-color="#4A33CC"/>
<stop offset="1" stop-color="white"/>
</linearGradient>
<linearGradient id="paint14_linear_10198_2647" x1="1182.37" y1="110.259" x2="1032.39" y2="55.6756" gradientUnits="userSpaceOnUse">
<stop offset="0.04" stop-color="#29FFB2"/>
<stop offset="1" stop-color="#4326A7"/>
</linearGradient>
<linearGradient id="paint15_linear_10198_2647" x1="1044.25" y1="56.4837" x2="1004.75" y2="214.959" gradientUnits="userSpaceOnUse">
<stop offset="0.02" stop-color="#4A33CC"/>
<stop offset="1" stop-color="white"/>
</linearGradient>
<linearGradient id="paint16_linear_10198_2647" x1="858.874" y1="108.905" x2="985.878" y2="35.5852" gradientUnits="userSpaceOnUse">
<stop offset="0.04" stop-color="#29FFB2"/>
<stop offset="1" stop-color="#4326A7"/>
</linearGradient>
<linearGradient id="paint17_linear_10198_2647" x1="1422.1" y1="-16.7194" x2="1272.1" y2="-71.3155" gradientUnits="userSpaceOnUse">
<stop offset="0.02" stop-color="#4A33CC"/>
<stop offset="1" stop-color="white"/>
</linearGradient>
<linearGradient id="paint18_linear_10198_2647" x1="1462.74" y1="-59.7791" x2="1632.05" y2="-59.7791" gradientUnits="userSpaceOnUse">
<stop offset="0.02" stop-color="#4A33CC"/>
<stop offset="1" stop-color="white"/>
</linearGradient>
<linearGradient id="paint19_linear_10198_2647" x1="1609.18" y1="110.259" x2="1459.21" y2="55.6756" gradientUnits="userSpaceOnUse">
<stop offset="0.04" stop-color="#29FFB2"/>
<stop offset="1" stop-color="#4326A7"/>
</linearGradient>
<linearGradient id="paint20_linear_10198_2647" x1="1471.07" y1="56.4837" x2="1431.55" y2="214.959" gradientUnits="userSpaceOnUse">
<stop offset="0.02" stop-color="#4A33CC"/>
<stop offset="1" stop-color="white"/>
</linearGradient>
<linearGradient id="paint21_linear_10198_2647" x1="1285.7" y1="108.905" x2="1412.69" y2="35.5852" gradientUnits="userSpaceOnUse">
<stop offset="0.04" stop-color="#29FFB2"/>
<stop offset="1" stop-color="#4326A7"/>
</linearGradient>
<linearGradient id="paint22_linear_10198_2647" x1="1849.45" y1="-16.7194" x2="1699.45" y2="-71.3154" gradientUnits="userSpaceOnUse">
<stop offset="0.02" stop-color="#4A33CC"/>
<stop offset="1" stop-color="white"/>
</linearGradient>
<linearGradient id="paint23_linear_10198_2647" x1="1890.09" y1="-59.7791" x2="2059.41" y2="-59.7791" gradientUnits="userSpaceOnUse">
<stop offset="0.02" stop-color="#4A33CC"/>
<stop offset="1" stop-color="white"/>
</linearGradient>
<linearGradient id="paint24_linear_10198_2647" x1="2036.53" y1="110.259" x2="1886.56" y2="55.6756" gradientUnits="userSpaceOnUse">
<stop offset="0.04" stop-color="#29FFB2"/>
<stop offset="1" stop-color="#4326A7"/>
</linearGradient>
<linearGradient id="paint25_linear_10198_2647" x1="1898.43" y1="56.4837" x2="1858.91" y2="214.959" gradientUnits="userSpaceOnUse">
<stop offset="0.02" stop-color="#4A33CC"/>
<stop offset="1" stop-color="white"/>
</linearGradient>
<linearGradient id="paint26_linear_10198_2647" x1="1713.05" y1="108.905" x2="1840.05" y2="35.5853" gradientUnits="userSpaceOnUse">
<stop offset="0.04" stop-color="#29FFB2"/>
<stop offset="1" stop-color="#4326A7"/>
</linearGradient>
<linearGradient id="paint27_linear_10198_2647" x1="399.124" y1="55.4421" x2="365.648" y2="212.915" gradientUnits="userSpaceOnUse">
<stop offset="0.02" stop-color="#4A33CC"/>
<stop offset="1" stop-color="white"/>
</linearGradient>
<linearGradient id="paint28_linear_10198_2647" x1="1253.39" y1="55.4421" x2="1219.91" y2="212.915" gradientUnits="userSpaceOnUse">
<stop offset="0.02" stop-color="#4A33CC"/>
<stop offset="1" stop-color="white"/>
</linearGradient>
<linearGradient id="paint29_linear_10198_2647" x1="1680.51" y1="55.4421" x2="1647.05" y2="212.915" gradientUnits="userSpaceOnUse">
<stop offset="0.02" stop-color="#4A33CC"/>
<stop offset="1" stop-color="white"/>
</linearGradient>
<linearGradient id="paint30_linear_10198_2647" x1="-140" y1="211.482" x2="-138.698" y2="358.604" gradientUnits="userSpaceOnUse">
<stop offset="0.04" stop-color="#29FFB2"/>
<stop offset="1" stop-color="#4326A7"/>
</linearGradient>
<linearGradient id="paint31_linear_10198_2647" x1="373.252" y1="211.482" x2="373.252" y2="358.604" gradientUnits="userSpaceOnUse">
<stop offset="0.04" stop-color="#29FFB2"/>
<stop offset="1" stop-color="#4326A7"/>
</linearGradient>
<linearGradient id="paint32_linear_10198_2647" x1="1228.34" y1="211.482" x2="1228.34" y2="358.604" gradientUnits="userSpaceOnUse">
<stop offset="0.04" stop-color="#29FFB2"/>
<stop offset="1" stop-color="#4326A7"/>
</linearGradient>
<linearGradient id="paint33_linear_10198_2647" x1="1655.88" y1="211.482" x2="1655.88" y2="358.604" gradientUnits="userSpaceOnUse">
<stop offset="0.04" stop-color="#29FFB2"/>
<stop offset="1" stop-color="#4326A7"/>
</linearGradient>
<linearGradient id="paint34_linear_10198_2647" x1="-140" y1="426.391" x2="-62.3179" y2="584.45" gradientUnits="userSpaceOnUse">
<stop offset="0.02" stop-color="#4A33CC"/>
<stop offset="1" stop-color="white"/>
</linearGradient>
<linearGradient id="paint35_linear_10198_2647" x1="140.895" y1="354.763" x2="-9.10364" y2="300.167" gradientUnits="userSpaceOnUse">
<stop offset="0.02" stop-color="#4A33CC"/>
<stop offset="1" stop-color="white"/>
</linearGradient>
<linearGradient id="paint36_linear_10198_2647" x1="144.372" y1="190.324" x2="201.598" y2="347.549" gradientUnits="userSpaceOnUse">
<stop offset="0.04" stop-color="#29FFB2"/>
<stop offset="1" stop-color="#4326A7"/>
</linearGradient>
<linearGradient id="paint37_linear_10198_2647" x1="181.521" y1="311.716" x2="350.842" y2="311.716" gradientUnits="userSpaceOnUse">
<stop offset="0.02" stop-color="#4A33CC"/>
<stop offset="1" stop-color="white"/>
</linearGradient>
<linearGradient id="paint38_linear_10198_2647" x1="327.978" y1="481.741" x2="177.992" y2="427.158" gradientUnits="userSpaceOnUse">
<stop offset="0.04" stop-color="#29FFB2"/>
<stop offset="1" stop-color="#4326A7"/>
</linearGradient>
<linearGradient id="paint39_linear_10198_2647" x1="189.853" y1="427.966" x2="150.348" y2="586.442" gradientUnits="userSpaceOnUse">
<stop offset="0.02" stop-color="#4A33CC"/>
<stop offset="1" stop-color="white"/>
</linearGradient>
<linearGradient id="paint40_linear_10198_2647" x1="4.49101" y1="480.401" x2="131.482" y2="407.068" gradientUnits="userSpaceOnUse">
<stop offset="0.04" stop-color="#29FFB2"/>
<stop offset="1" stop-color="#4326A7"/>
</linearGradient>
<linearGradient id="paint41_linear_10198_2647" x1="568.485" y1="354.763" x2="418.486" y2="300.167" gradientUnits="userSpaceOnUse">
<stop offset="0.02" stop-color="#4A33CC"/>
<stop offset="1" stop-color="white"/>
</linearGradient>
<linearGradient id="paint42_linear_10198_2647" x1="571.962" y1="190.324" x2="629.188" y2="347.549" gradientUnits="userSpaceOnUse">
<stop offset="0.04" stop-color="#29FFB2"/>
<stop offset="1" stop-color="#4326A7"/>
</linearGradient>
<linearGradient id="paint43_linear_10198_2647" x1="609.109" y1="311.716" x2="778.431" y2="311.716" gradientUnits="userSpaceOnUse">
<stop offset="0.02" stop-color="#4A33CC"/>
<stop offset="1" stop-color="white"/>
</linearGradient>
<linearGradient id="paint44_linear_10198_2647" x1="755.567" y1="481.741" x2="605.581" y2="427.158" gradientUnits="userSpaceOnUse">
<stop offset="0.04" stop-color="#29FFB2"/>
<stop offset="1" stop-color="#4326A7"/>
</linearGradient>
<linearGradient id="paint45_linear_10198_2647" x1="617.442" y1="427.966" x2="577.937" y2="586.442" gradientUnits="userSpaceOnUse">
<stop offset="0.02" stop-color="#4A33CC"/>
<stop offset="1" stop-color="white"/>
</linearGradient>
<linearGradient id="paint46_linear_10198_2647" x1="432.08" y1="480.401" x2="559.071" y2="407.068" gradientUnits="userSpaceOnUse">
<stop offset="0.04" stop-color="#29FFB2"/>
<stop offset="1" stop-color="#4326A7"/>
</linearGradient>
<linearGradient id="paint47_linear_10198_2647" x1="786.063" y1="190.324" x2="843.29" y2="347.549" gradientUnits="userSpaceOnUse">
<stop offset="0.04" stop-color="#29FFB2"/>
<stop offset="1" stop-color="#4326A7"/>
</linearGradient>
<linearGradient id="paint48_linear_10198_2647" x1="831.545" y1="427.966" x2="792.027" y2="586.442" gradientUnits="userSpaceOnUse">
<stop offset="0.02" stop-color="#4A33CC"/>
<stop offset="1" stop-color="white"/>
</linearGradient>
<linearGradient id="paint49_linear_10198_2647" x1="995.282" y1="354.763" x2="845.283" y2="300.167" gradientUnits="userSpaceOnUse">
<stop offset="0.02" stop-color="#4A33CC"/>
<stop offset="1" stop-color="white"/>
</linearGradient>
<linearGradient id="paint50_linear_10198_2647" x1="998.768" y1="190.324" x2="1055.99" y2="347.549" gradientUnits="userSpaceOnUse">
<stop offset="0.04" stop-color="#29FFB2"/>
<stop offset="1" stop-color="#4326A7"/>
</linearGradient>
<linearGradient id="paint51_linear_10198_2647" x1="1035.92" y1="311.716" x2="1205.24" y2="311.716" gradientUnits="userSpaceOnUse">
<stop offset="0.02" stop-color="#4A33CC"/>
<stop offset="1" stop-color="white"/>
</linearGradient>
<linearGradient id="paint52_linear_10198_2647" x1="1182.37" y1="481.741" x2="1032.39" y2="427.158" gradientUnits="userSpaceOnUse">
<stop offset="0.04" stop-color="#29FFB2"/>
<stop offset="1" stop-color="#4326A7"/>
</linearGradient>
<linearGradient id="paint53_linear_10198_2647" x1="1044.25" y1="427.966" x2="1004.74" y2="586.442" gradientUnits="userSpaceOnUse">
<stop offset="0.02" stop-color="#4A33CC"/>
<stop offset="1" stop-color="white"/>
</linearGradient>
<linearGradient id="paint54_linear_10198_2647" x1="858.873" y1="480.401" x2="985.877" y2="407.068" gradientUnits="userSpaceOnUse">
<stop offset="0.04" stop-color="#29FFB2"/>
<stop offset="1" stop-color="#4326A7"/>
</linearGradient>
<linearGradient id="paint55_linear_10198_2647" x1="1422.1" y1="354.763" x2="1272.1" y2="300.167" gradientUnits="userSpaceOnUse">
<stop offset="0.02" stop-color="#4A33CC"/>
<stop offset="1" stop-color="white"/>
</linearGradient>
<linearGradient id="paint56_linear_10198_2647" x1="1425.59" y1="190.324" x2="1482.81" y2="347.549" gradientUnits="userSpaceOnUse">
<stop offset="0.04" stop-color="#29FFB2"/>
<stop offset="1" stop-color="#4326A7"/>
</linearGradient>
<linearGradient id="paint57_linear_10198_2647" x1="1462.74" y1="311.716" x2="1632.05" y2="311.716" gradientUnits="userSpaceOnUse">
<stop offset="0.02" stop-color="#4A33CC"/>
<stop offset="1" stop-color="white"/>
</linearGradient>
<linearGradient id="paint58_linear_10198_2647" x1="1609.18" y1="481.741" x2="1459.21" y2="427.158" gradientUnits="userSpaceOnUse">
<stop offset="0.04" stop-color="#29FFB2"/>
<stop offset="1" stop-color="#4326A7"/>
</linearGradient>
<linearGradient id="paint59_linear_10198_2647" x1="1471.07" y1="427.966" x2="1431.55" y2="586.442" gradientUnits="userSpaceOnUse">
<stop offset="0.02" stop-color="#4A33CC"/>
<stop offset="1" stop-color="white"/>
</linearGradient>
<linearGradient id="paint60_linear_10198_2647" x1="1285.69" y1="480.401" x2="1412.68" y2="407.068" gradientUnits="userSpaceOnUse">
<stop offset="0.04" stop-color="#29FFB2"/>
<stop offset="1" stop-color="#4326A7"/>
</linearGradient>
<linearGradient id="paint61_linear_10198_2647" x1="1849.45" y1="354.763" x2="1699.45" y2="300.167" gradientUnits="userSpaceOnUse">
<stop offset="0.02" stop-color="#4A33CC"/>
<stop offset="1" stop-color="white"/>
</linearGradient>
<linearGradient id="paint62_linear_10198_2647" x1="1852.94" y1="190.324" x2="1910.17" y2="347.549" gradientUnits="userSpaceOnUse">
<stop offset="0.04" stop-color="#29FFB2"/>
<stop offset="1" stop-color="#4326A7"/>
</linearGradient>
<linearGradient id="paint63_linear_10198_2647" x1="1890.09" y1="311.716" x2="2059.41" y2="311.716" gradientUnits="userSpaceOnUse">
<stop offset="0.02" stop-color="#4A33CC"/>
<stop offset="1" stop-color="white"/>
</linearGradient>
<linearGradient id="paint64_linear_10198_2647" x1="2036.53" y1="481.741" x2="1886.56" y2="427.158" gradientUnits="userSpaceOnUse">
<stop offset="0.04" stop-color="#29FFB2"/>
<stop offset="1" stop-color="#4326A7"/>
</linearGradient>
<linearGradient id="paint65_linear_10198_2647" x1="1898.43" y1="427.966" x2="1858.91" y2="586.442" gradientUnits="userSpaceOnUse">
<stop offset="0.02" stop-color="#4A33CC"/>
<stop offset="1" stop-color="white"/>
</linearGradient>
<linearGradient id="paint66_linear_10198_2647" x1="1713.05" y1="480.401" x2="1840.05" y2="407.068" gradientUnits="userSpaceOnUse">
<stop offset="0.04" stop-color="#29FFB2"/>
<stop offset="1" stop-color="#4326A7"/>
</linearGradient>
<linearGradient id="paint67_linear_10198_2647" x1="399.124" y1="426.924" x2="365.648" y2="584.397" gradientUnits="userSpaceOnUse">
<stop offset="0.02" stop-color="#4A33CC"/>
<stop offset="1" stop-color="white"/>
</linearGradient>
<linearGradient id="paint68_linear_10198_2647" x1="1253.39" y1="426.924" x2="1219.91" y2="584.397" gradientUnits="userSpaceOnUse">
<stop offset="0.02" stop-color="#4A33CC"/>
<stop offset="1" stop-color="white"/>
</linearGradient>
<linearGradient id="paint69_linear_10198_2647" x1="1680.51" y1="426.924" x2="1647.05" y2="584.397" gradientUnits="userSpaceOnUse">
<stop offset="0.02" stop-color="#4A33CC"/>
<stop offset="1" stop-color="white"/>
</linearGradient>
<linearGradient id="paint70_linear_10198_2647" x1="-140" y1="582.991" x2="-138.698" y2="730.112" gradientUnits="userSpaceOnUse">
<stop offset="0.04" stop-color="#29FFB2"/>
<stop offset="1" stop-color="#4326A7"/>
</linearGradient>
<linearGradient id="paint71_linear_10198_2647" x1="373.252" y1="582.991" x2="373.252" y2="730.112" gradientUnits="userSpaceOnUse">
<stop offset="0.04" stop-color="#29FFB2"/>
<stop offset="1" stop-color="#4326A7"/>
</linearGradient>
<linearGradient id="paint72_linear_10198_2647" x1="1228.34" y1="582.991" x2="1228.34" y2="730.112" gradientUnits="userSpaceOnUse">
<stop offset="0.04" stop-color="#29FFB2"/>
<stop offset="1" stop-color="#4326A7"/>
</linearGradient>
<linearGradient id="paint73_linear_10198_2647" x1="1655.88" y1="582.991" x2="1655.88" y2="730.112" gradientUnits="userSpaceOnUse">
<stop offset="0.04" stop-color="#29FFB2"/>
<stop offset="1" stop-color="#4326A7"/>
</linearGradient>
<linearGradient id="paint74_linear_10198_2647" x1="140.895" y1="726.271" x2="-9.10364" y2="671.675" gradientUnits="userSpaceOnUse">
<stop offset="0.02" stop-color="#4A33CC"/>
<stop offset="1" stop-color="white"/>
</linearGradient>
<linearGradient id="paint75_linear_10198_2647" x1="144.372" y1="561.832" x2="201.598" y2="719.071" gradientUnits="userSpaceOnUse">
<stop offset="0.04" stop-color="#29FFB2"/>
<stop offset="1" stop-color="#4326A7"/>
</linearGradient>
<linearGradient id="paint76_linear_10198_2647" x1="181.521" y1="683.224" x2="350.842" y2="683.224" gradientUnits="userSpaceOnUse">
<stop offset="0.02" stop-color="#4A33CC"/>
<stop offset="1" stop-color="white"/>
</linearGradient>
<linearGradient id="paint77_linear_10198_2647" x1="327.978" y1="853.263" x2="177.992" y2="798.666" gradientUnits="userSpaceOnUse">
<stop offset="0.04" stop-color="#29FFB2"/>
<stop offset="1" stop-color="#4326A7"/>
</linearGradient>
<linearGradient id="paint78_linear_10198_2647" x1="4.49101" y1="851.908" x2="131.482" y2="778.588" gradientUnits="userSpaceOnUse">
<stop offset="0.04" stop-color="#29FFB2"/>
<stop offset="1" stop-color="#4326A7"/>
</linearGradient>
<linearGradient id="paint79_linear_10198_2647" x1="568.486" y1="726.271" x2="418.487" y2="671.675" gradientUnits="userSpaceOnUse">
<stop offset="0.02" stop-color="#4A33CC"/>
<stop offset="1" stop-color="white"/>
</linearGradient>
<linearGradient id="paint80_linear_10198_2647" x1="571.963" y1="561.832" x2="629.189" y2="719.071" gradientUnits="userSpaceOnUse">
<stop offset="0.04" stop-color="#29FFB2"/>
<stop offset="1" stop-color="#4326A7"/>
</linearGradient>
<linearGradient id="paint81_linear_10198_2647" x1="609.109" y1="683.224" x2="778.431" y2="683.224" gradientUnits="userSpaceOnUse">
<stop offset="0.02" stop-color="#4A33CC"/>
<stop offset="1" stop-color="white"/>
</linearGradient>
<linearGradient id="paint82_linear_10198_2647" x1="755.568" y1="853.263" x2="605.582" y2="798.666" gradientUnits="userSpaceOnUse">
<stop offset="0.04" stop-color="#29FFB2"/>
<stop offset="1" stop-color="#4326A7"/>
</linearGradient>
<linearGradient id="paint83_linear_10198_2647" x1="432.081" y1="851.908" x2="559.072" y2="778.588" gradientUnits="userSpaceOnUse">
<stop offset="0.04" stop-color="#29FFB2"/>
<stop offset="1" stop-color="#4326A7"/>
</linearGradient>
<linearGradient id="paint84_linear_10198_2647" x1="786.063" y1="561.832" x2="843.29" y2="719.071" gradientUnits="userSpaceOnUse">
<stop offset="0.04" stop-color="#29FFB2"/>
<stop offset="1" stop-color="#4326A7"/>
</linearGradient>
<linearGradient id="paint85_linear_10198_2647" x1="995.282" y1="726.273" x2="845.283" y2="671.677" gradientUnits="userSpaceOnUse">
<stop offset="0.02" stop-color="#4A33CC"/>
<stop offset="1" stop-color="white"/>
</linearGradient>
<linearGradient id="paint86_linear_10198_2647" x1="998.768" y1="561.832" x2="1055.99" y2="719.071" gradientUnits="userSpaceOnUse">
<stop offset="0.04" stop-color="#29FFB2"/>
<stop offset="1" stop-color="#4326A7"/>
</linearGradient>
<linearGradient id="paint87_linear_10198_2647" x1="1035.92" y1="683.224" x2="1205.24" y2="683.224" gradientUnits="userSpaceOnUse">
<stop offset="0.02" stop-color="#4A33CC"/>
<stop offset="1" stop-color="white"/>
</linearGradient>
<linearGradient id="paint88_linear_10198_2647" x1="1182.37" y1="853.263" x2="1032.39" y2="798.666" gradientUnits="userSpaceOnUse">
<stop offset="0.04" stop-color="#29FFB2"/>
<stop offset="1" stop-color="#4326A7"/>
</linearGradient>
<linearGradient id="paint89_linear_10198_2647" x1="858.873" y1="851.908" x2="985.877" y2="778.588" gradientUnits="userSpaceOnUse">
<stop offset="0.04" stop-color="#29FFB2"/>
<stop offset="1" stop-color="#4326A7"/>
</linearGradient>
<linearGradient id="paint90_linear_10198_2647" x1="1422.1" y1="726.271" x2="1272.1" y2="671.675" gradientUnits="userSpaceOnUse">
<stop offset="0.02" stop-color="#4A33CC"/>
<stop offset="1" stop-color="white"/>
</linearGradient>
<linearGradient id="paint91_linear_10198_2647" x1="1425.59" y1="561.832" x2="1482.81" y2="719.071" gradientUnits="userSpaceOnUse">
<stop offset="0.04" stop-color="#29FFB2"/>
<stop offset="1" stop-color="#4326A7"/>
</linearGradient>
<linearGradient id="paint92_linear_10198_2647" x1="1462.74" y1="683.224" x2="1632.05" y2="683.224" gradientUnits="userSpaceOnUse">
<stop offset="0.02" stop-color="#4A33CC"/>
<stop offset="1" stop-color="white"/>
</linearGradient>
<linearGradient id="paint93_linear_10198_2647" x1="1609.18" y1="853.263" x2="1459.21" y2="798.666" gradientUnits="userSpaceOnUse">
<stop offset="0.04" stop-color="#29FFB2"/>
<stop offset="1" stop-color="#4326A7"/>
</linearGradient>
<linearGradient id="paint94_linear_10198_2647" x1="1285.69" y1="851.908" x2="1412.69" y2="778.588" gradientUnits="userSpaceOnUse">
<stop offset="0.04" stop-color="#29FFB2"/>
<stop offset="1" stop-color="#4326A7"/>
</linearGradient>
<linearGradient id="paint95_linear_10198_2647" x1="1849.45" y1="726.271" x2="1699.45" y2="671.675" gradientUnits="userSpaceOnUse">
<stop offset="0.02" stop-color="#4A33CC"/>
<stop offset="1" stop-color="white"/>
</linearGradient>
<linearGradient id="paint96_linear_10198_2647" x1="1852.94" y1="561.832" x2="1910.17" y2="719.071" gradientUnits="userSpaceOnUse">
<stop offset="0.04" stop-color="#29FFB2"/>
<stop offset="1" stop-color="#4326A7"/>
</linearGradient>
<linearGradient id="paint97_linear_10198_2647" x1="1890.09" y1="683.224" x2="2059.41" y2="683.224" gradientUnits="userSpaceOnUse">
<stop offset="0.02" stop-color="#4A33CC"/>
<stop offset="1" stop-color="white"/>
</linearGradient>
<linearGradient id="paint98_linear_10198_2647" x1="2036.53" y1="853.263" x2="1886.56" y2="798.666" gradientUnits="userSpaceOnUse">
<stop offset="0.04" stop-color="#29FFB2"/>
<stop offset="1" stop-color="#4326A7"/>
</linearGradient>
<linearGradient id="paint99_linear_10198_2647" x1="1713.05" y1="851.908" x2="1840.05" y2="778.589" gradientUnits="userSpaceOnUse">
<stop offset="0.04" stop-color="#29FFB2"/>
<stop offset="1" stop-color="#4326A7"/>
</linearGradient>
<clipPath id="clip0_10198_2647">
<rect width="2200" height="1101.99" fill="white" transform="translate(-140 -160)"/>
</clipPath>
</defs>
</svg>
