<svg width="115" height="36" viewBox="0 0 115 36" fill="none" xmlns="http://www.w3.org/2000/svg">
<path d="M24.9796 0.284139C24.9251 6.05607 23.6624 11.5712 21.4265 16.5722C17.7184 24.8752 11.3353 31.751 3.37573 36C3.28289 35.8865 3.19005 35.7729 3.09781 35.6564C3.09482 35.6535 3.09242 35.6511 3.08943 35.6481C1.78609 33.8702 0.73612 31.8972 0 29.7781C10.5986 24.128 17.819 13.0412 17.8711 0.270467H17.8741C19.0163 0.092137 20.1891 0 21.3804 0C22.6047 0 23.8074 0.0974869 24.9796 0.284139Z" fill="url(#paint0_linear_10332_2127)"/>
<path d="M24.9795 0.283544C23.8073 0.0974869 22.6052 0 21.3803 0C20.1884 0 19.0162 0.092137 17.874 0.269872C17.9249 6.04894 19.1917 11.57 21.4276 16.5728C22.3572 18.6551 23.4545 20.647 24.7033 22.5296C26.3858 21.0518 28.0839 19.341 29.7621 17.3604C26.7542 12.3636 25.0166 6.52568 24.9908 0.287705C24.9873 0.283544 24.9831 0.283544 24.9795 0.283544Z" fill="url(#paint1_linear_10332_2127)"/>
<path d="M35.108 24.1133C33.607 25.9275 31.9407 27.6032 30.1318 29.1142C32.8799 31.8219 36.0058 34.1384 39.4259 35.9704C40.852 34.0974 41.9906 31.9978 42.7705 29.736C39.95 28.2226 37.3732 26.324 35.108 24.1133Z" fill="url(#paint2_linear_10332_2127)"/>
<path d="M39.7504 9.35541C34.7413 24.6478 20.3717 35.7482 3.35111 35.9949C1.92499 34.1302 0.785169 32.0383 0.00292969 29.7813C0.916341 29.8597 1.84053 29.8978 2.77311 29.8978C18.452 29.8978 31.5567 18.9543 34.7521 4.34375C36.6718 5.74245 38.3626 7.43658 39.7504 9.35541Z" fill="#29FFB2"/>
<path d="M60.1012 17.4565V26.9062H58.2229V25.7476C57.4203 26.6345 56.3074 27.1778 54.976 27.1778C52.2579 27.1778 50.2334 25.114 50.2334 22.1816C50.2334 19.2493 52.2579 17.167 54.976 17.167C56.3074 17.167 57.4203 17.7281 58.2229 18.615V17.4565H60.1012ZM58.2229 22.1816C58.2229 20.2444 56.8729 19.0139 55.1952 19.0139C53.5169 19.0139 52.1854 20.3353 52.1854 22.1816C52.1854 24.0279 53.5169 25.3494 55.1952 25.3494C56.8729 25.3494 58.2229 24.1183 58.2229 22.1816Z" fill="white"/>
<path d="M65.0068 26.9242V13.6553H66.9768V26.9242H65.0068Z" fill="white"/>
<path d="M81.0764 17.475V25.7299C81.0764 29.133 79.2155 30.9437 76.3153 30.9437C74.1267 30.9437 72.8132 29.948 72.0471 28.9886L73.4882 27.7397C73.962 28.3912 74.8197 29.1152 76.2243 29.1152C77.9756 29.1152 79.1244 27.9929 79.1244 25.929V25.875C78.3218 26.6893 77.2455 27.1964 75.9691 27.1964C73.251 27.1964 71.2266 25.1325 71.2266 22.2002C71.2266 19.2678 73.251 17.1855 75.9691 17.1855C77.3006 17.1855 78.4129 17.7651 79.2155 18.6336V17.475H81.0764ZM79.2155 22.1996C79.2155 20.2623 77.866 19.0319 76.1877 19.0319C74.5095 19.0319 73.178 20.3533 73.178 22.1996C73.178 24.0459 74.5095 25.3673 76.1877 25.3673C77.866 25.3673 79.2155 24.1368 79.2155 22.1996Z" fill="white"/>
<path d="M93.3321 23.9917L94.7912 25.2227C93.7514 26.4175 92.1647 27.1778 90.3223 27.1778C87.4036 27.1778 85.2881 25.0236 85.2881 22.1269C85.2881 19.339 87.3491 17.167 90.2127 17.167C93.0763 17.167 95.1559 19.339 95.1559 22.1269H95.138C95.138 22.4164 95.1194 22.7065 95.0829 22.9776H87.276C87.5677 24.4078 88.662 25.4034 90.3223 25.4034C91.5993 25.4034 92.6571 24.8423 93.3321 23.9917ZM87.2946 21.2763H93.168C92.8577 19.9186 91.8179 18.9592 90.2127 18.9592C88.6261 18.9592 87.6043 19.9186 87.2946 21.2763Z" fill="white"/>
<path d="M115 21.439V26.9239C115 26.9239 114.162 26.9239 113.03 26.9239C113.03 25.4033 113.03 22.0905 113.03 21.5657C113.03 19.9363 112.192 19.0316 110.714 19.0316C109.164 19.0316 108.16 19.991 108.16 21.9824V26.9245C108.16 26.9245 107.595 26.9245 106.738 26.9245C106.574 26.9245 106.391 26.9245 106.209 26.9245C106.209 25.4039 106.209 22.0911 106.209 21.5663C106.209 19.9369 105.37 19.0322 103.892 19.0322C102.342 19.0322 101.32 19.9916 101.32 21.983V26.9251C100.682 26.9251 100.171 26.9251 99.897 26.9251H99.3682V17.4748H101.229V18.5245C102.013 17.7102 103.125 17.2031 104.366 17.2031C105.99 17.2031 107.084 17.8368 107.667 18.9953C108.47 17.9093 109.728 17.2031 111.206 17.2031C113.742 17.2031 115 18.7415 115 21.439Z" fill="white"/>
<defs>
<linearGradient id="paint0_linear_10332_2127" x1="2.69665" y1="33.7458" x2="21.2774" y2="6.22409" gradientUnits="userSpaceOnUse">
<stop offset="0.0466" stop-color="#078296"/>
<stop offset="0.1056" stop-color="#0A8F99"/>
<stop offset="0.2661" stop-color="#12AD9F"/>
<stop offset="0.4036" stop-color="#17BFA4"/>
<stop offset="0.5011" stop-color="#19C6A5"/>
<stop offset="0.587" stop-color="#17C1A3"/>
<stop offset="0.6933" stop-color="#12B19F"/>
<stop offset="0.8098" stop-color="#0A9898"/>
<stop offset="0.9132" stop-color="#007C90"/>
</linearGradient>
<linearGradient id="paint1_linear_10332_2127" x1="38.3911" y1="37.8729" x2="22.0952" y2="5.86592" gradientUnits="userSpaceOnUse">
<stop offset="0.0951" stop-color="#29FFB2"/>
<stop offset="0.1995" stop-color="#28FCB1"/>
<stop offset="0.2759" stop-color="#26F3AF"/>
<stop offset="0.3435" stop-color="#21E3AB"/>
<stop offset="0.4058" stop-color="#1BCCA6"/>
<stop offset="0.4646" stop-color="#12AF9F"/>
<stop offset="0.52" stop-color="#088C97"/>
<stop offset="0.5271" stop-color="#078796"/>
<stop offset="0.5435" stop-color="#098F98"/>
<stop offset="0.6406" stop-color="#14BCA1"/>
<stop offset="0.7159" stop-color="#1BD8A7"/>
<stop offset="0.7596" stop-color="#1EE2A9"/>
<stop offset="0.7707" stop-color="#1FE5AA"/>
<stop offset="0.8633" stop-color="#26F7B0"/>
<stop offset="0.9286" stop-color="#29FEB2"/>
</linearGradient>
<linearGradient id="paint2_linear_10332_2127" x1="40.3125" y1="36.8945" x2="24.0167" y2="4.88754" gradientUnits="userSpaceOnUse">
<stop offset="0.0951" stop-color="#29FFB2"/>
<stop offset="0.1995" stop-color="#28FCB1"/>
<stop offset="0.2759" stop-color="#26F3AF"/>
<stop offset="0.3435" stop-color="#21E3AB"/>
<stop offset="0.4058" stop-color="#1BCCA6"/>
<stop offset="0.4646" stop-color="#12AF9F"/>
<stop offset="0.52" stop-color="#088C97"/>
<stop offset="0.5271" stop-color="#078796"/>
<stop offset="0.5435" stop-color="#098F98"/>
<stop offset="0.6406" stop-color="#14BCA1"/>
<stop offset="0.7159" stop-color="#1BD8A7"/>
<stop offset="0.7596" stop-color="#1EE2A9"/>
<stop offset="0.7707" stop-color="#1FE5AA"/>
<stop offset="0.8633" stop-color="#26F7B0"/>
<stop offset="0.9286" stop-color="#29FEB2"/>
</linearGradient>
</defs>
</svg>
