<svg width="146" height="52" viewBox="0 0 146 52" fill="none" xmlns="http://www.w3.org/2000/svg">
<g clip-path="url(#clip0_10086_1418)" filter="url(#filter0_d_10086_1418)">
<path d="M33.9755 0.34728C33.9101 7.40187 32.3949 14.1426 29.7118 20.2549C25.2621 30.403 17.6023 38.8068 8.05088 44C7.93947 43.8612 7.82806 43.7225 7.71738 43.5801C7.71378 43.5764 7.71091 43.5735 7.70731 43.5699C6.14331 41.3969 4.88334 38.9855 4 36.3954C16.7183 29.4898 25.3828 15.9393 25.4453 0.33057H25.4489C26.8196 0.112612 28.2269 0 29.6565 0C31.1256 0 32.5689 0.119151 33.9755 0.34728Z" fill="url(#paint0_linear_10086_1418)"/>
<path d="M33.9757 0.346554C32.5692 0.119151 31.1266 0 29.6568 0C28.2265 0 26.8199 0.112612 25.4492 0.329844C25.5103 7.39315 27.0305 14.1411 29.7136 20.2556C30.8291 22.8006 32.1458 25.2352 33.6444 27.5361C35.6634 25.73 37.701 23.639 39.715 21.2183C36.1054 15.1111 34.0203 7.97583 33.9894 0.35164C33.9851 0.346554 33.9801 0.346554 33.9757 0.346554Z" fill="url(#paint1_linear_10086_1418)"/>
<path d="M46.1306 29.4717C44.3294 31.689 42.3298 33.7371 40.1592 35.584C43.4568 38.8933 47.208 41.7246 51.312 43.9637C53.0234 41.6744 54.3897 39.1083 55.3255 36.3439C51.9409 34.4942 48.8489 32.1736 46.1306 29.4717Z" fill="url(#paint2_linear_10086_1418)"/>
<path d="M51.7009 11.434C45.69 30.1246 28.4464 43.6918 8.02172 43.9933C6.31038 41.7142 4.94259 39.1575 4.00391 36.3989C5.1 36.4948 6.20903 36.5413 7.32812 36.5413C26.1428 36.5413 41.8684 23.1659 45.7029 5.30859C48.0065 7.01811 50.0355 9.08872 51.7009 11.434Z" fill="#29FFB2"/>
<path d="M76.1217 21.3362V32.8859H73.8677V31.4699C72.9046 32.5538 71.5691 33.2179 69.9713 33.2179C66.7096 33.2179 64.2803 30.6954 64.2803 27.1114C64.2803 23.5275 66.7096 20.9824 69.9713 20.9824C71.5691 20.9824 72.9046 21.6683 73.8677 22.7522V21.3362H76.1217ZM73.8677 27.1114C73.8677 24.7437 72.2476 23.2397 70.2344 23.2397C68.2205 23.2397 66.6227 24.8548 66.6227 27.1114C66.6227 29.368 68.2205 30.9831 70.2344 30.9831C72.2476 30.9831 73.8677 29.4784 73.8677 27.1114Z" fill="white"/>
<path d="M82.0078 32.9075V16.6899H84.3718V32.9075H82.0078Z" fill="white"/>
<path d="M101.292 21.3587V31.448C101.292 35.6074 99.0584 37.8204 95.5782 37.8204C92.9519 37.8204 91.3756 36.6034 90.4564 35.4308L92.1857 33.9044C92.7542 34.7007 93.7835 35.5856 95.4689 35.5856C97.5705 35.5856 98.9491 34.2139 98.9491 31.6914V31.6253C97.986 32.6206 96.6944 33.2403 95.1627 33.2403C91.901 33.2403 89.4717 30.7178 89.4717 27.1339C89.4717 23.5499 91.901 21.0049 95.1627 21.0049C96.7605 21.0049 98.0952 21.7132 99.0584 22.7747V21.3587H101.292ZM99.0584 27.1331C99.0584 24.7654 97.439 23.2615 95.4251 23.2615C93.4111 23.2615 91.8134 24.8766 91.8134 27.1331C91.8134 29.3897 93.4111 31.0048 95.4251 31.0048C97.439 31.0048 99.0584 29.5009 99.0584 27.1331Z" fill="white"/>
<path d="M115.999 29.3237L117.749 30.8283C116.502 32.2887 114.598 33.2179 112.387 33.2179C108.884 33.2179 106.346 30.5849 106.346 27.0446C106.346 23.6372 108.819 20.9824 112.255 20.9824C115.692 20.9824 118.187 23.6372 118.187 27.0446H118.166C118.166 27.3984 118.143 27.7529 118.099 28.0842H108.731C109.081 29.8323 110.394 31.0492 112.387 31.0492C113.919 31.0492 115.188 30.3634 115.999 29.3237ZM108.754 26.0049H115.802C115.429 24.3455 114.182 23.1729 112.255 23.1729C110.351 23.1729 109.125 24.3455 108.754 26.0049Z" fill="white"/>
<path d="M142 26.2036V32.9073C142 32.9073 140.994 32.9073 139.636 32.9073C139.636 31.0488 139.636 26.9999 139.636 26.3584C139.636 24.3669 138.63 23.2612 136.856 23.2612C134.996 23.2612 133.792 24.4338 133.792 26.8677V32.908C133.792 32.908 133.113 32.908 132.085 32.908C131.888 32.908 131.669 32.908 131.45 32.908C131.45 31.0496 131.45 27.0006 131.45 26.3591C131.45 24.3677 130.443 23.2619 128.67 23.2619C126.81 23.2619 125.584 24.4345 125.584 26.8684V32.9087C124.817 32.9087 124.204 32.9087 123.876 32.9087H123.241V21.3584H125.474V22.6414C126.414 21.6461 127.75 21.0264 129.238 21.0264C131.187 21.0264 132.5 21.8008 133.2 23.2168C134.163 21.8895 135.673 21.0264 137.447 21.0264C140.49 21.0264 142 22.9066 142 26.2036Z" fill="white"/>
</g>
<defs>
<filter id="filter0_d_10086_1418" x="0" y="0" width="146" height="52" filterUnits="userSpaceOnUse" color-interpolation-filters="sRGB">
<feFlood flood-opacity="0" result="BackgroundImageFix"/>
<feColorMatrix in="SourceAlpha" type="matrix" values="0 0 0 0 0 0 0 0 0 0 0 0 0 0 0 0 0 0 127 0" result="hardAlpha"/>
<feOffset dy="4"/>
<feGaussianBlur stdDeviation="2"/>
<feComposite in2="hardAlpha" operator="out"/>
<feColorMatrix type="matrix" values="0 0 0 0 0 0 0 0 0 0 0 0 0 0 0 0 0 0 0.25 0"/>
<feBlend mode="normal" in2="BackgroundImageFix" result="effect1_dropShadow_10086_1418"/>
<feBlend mode="normal" in="SourceGraphic" in2="effect1_dropShadow_10086_1418" result="shape"/>
</filter>
<linearGradient id="paint0_linear_10086_1418" x1="7.23598" y1="41.2449" x2="30.0988" y2="7.99635" gradientUnits="userSpaceOnUse">
<stop offset="0.0466" stop-color="#078296"/>
<stop offset="0.1056" stop-color="#0A8F99"/>
<stop offset="0.2661" stop-color="#12AD9F"/>
<stop offset="0.4036" stop-color="#17BFA4"/>
<stop offset="0.5011" stop-color="#19C6A5"/>
<stop offset="0.587" stop-color="#17C1A3"/>
<stop offset="0.6933" stop-color="#12B19F"/>
<stop offset="0.8098" stop-color="#0A9898"/>
<stop offset="0.9132" stop-color="#007C90"/>
</linearGradient>
<linearGradient id="paint1_linear_10086_1418" x1="50.0697" y1="46.2891" x2="29.9386" y2="7.46819" gradientUnits="userSpaceOnUse">
<stop offset="0.0951" stop-color="#29FFB2"/>
<stop offset="0.1995" stop-color="#28FCB1"/>
<stop offset="0.2759" stop-color="#26F3AF"/>
<stop offset="0.3435" stop-color="#21E3AB"/>
<stop offset="0.4058" stop-color="#1BCCA6"/>
<stop offset="0.4646" stop-color="#12AF9F"/>
<stop offset="0.52" stop-color="#088C97"/>
<stop offset="0.5271" stop-color="#078796"/>
<stop offset="0.5435" stop-color="#098F98"/>
<stop offset="0.6406" stop-color="#14BCA1"/>
<stop offset="0.7159" stop-color="#1BD8A7"/>
<stop offset="0.7596" stop-color="#1EE2A9"/>
<stop offset="0.7707" stop-color="#1FE5AA"/>
<stop offset="0.8633" stop-color="#26F7B0"/>
<stop offset="0.9286" stop-color="#29FEB2"/>
</linearGradient>
<linearGradient id="paint2_linear_10086_1418" x1="52.376" y1="45.0932" x2="32.2449" y2="6.27228" gradientUnits="userSpaceOnUse">
<stop offset="0.0951" stop-color="#29FFB2"/>
<stop offset="0.1995" stop-color="#28FCB1"/>
<stop offset="0.2759" stop-color="#26F3AF"/>
<stop offset="0.3435" stop-color="#21E3AB"/>
<stop offset="0.4058" stop-color="#1BCCA6"/>
<stop offset="0.4646" stop-color="#12AF9F"/>
<stop offset="0.52" stop-color="#088C97"/>
<stop offset="0.5271" stop-color="#078796"/>
<stop offset="0.5435" stop-color="#098F98"/>
<stop offset="0.6406" stop-color="#14BCA1"/>
<stop offset="0.7159" stop-color="#1BD8A7"/>
<stop offset="0.7596" stop-color="#1EE2A9"/>
<stop offset="0.7707" stop-color="#1FE5AA"/>
<stop offset="0.8633" stop-color="#26F7B0"/>
<stop offset="0.9286" stop-color="#29FEB2"/>
</linearGradient>
<clipPath id="clip0_10086_1418">
<rect width="138" height="44" fill="white" transform="translate(4)"/>
</clipPath>
</defs>
</svg>
